Coordinates
version=1
nRows=6
nColumns=36
inDegrees=yes

Units are S.I. units (second, meters, Newtons, ...)
If the header above contains a line with 'inDegrees', this indicates whether rotational values are in degrees (yes) or radians (no).

endheader
time	pelvis_tilt	pelvis_list	pelvis_rotation	pelvis_tx	pelvis_ty	pelvis_tz	hip_flexion_r	hip_adduction_r	hip_rotation_r	knee_angle_r	knee_angle_r_beta	ankle_angle_r	subtalar_angle_r	mtp_angle_r	hip_flexion_l	hip_adduction_l	hip_rotation_l	knee_angle_l	knee_angle_l_beta	ankle_angle_l	subtalar_angle_l	mtp_angle_l	lumbar_extension	lumbar_bending	lumbar_rotation	arm_flex_r	arm_add_r	arm_rot_r	elbow_flex_r	pro_sup_r	arm_flex_l	arm_add_l	arm_rot_l	elbow_flex_l	pro_sup_l
     14.91666670	      2.52605721	      1.17233223	     -0.85962901	      0.56690047	      1.05418436	      0.84295084	     24.87599622	     -2.28151267	      0.23986494	     42.52888932	      0.74226915	      2.05883530	    -11.25377514	     -7.49999987	      2.41739207	      2.09727571	     -0.68304159	     17.26502308	      0.30133150	     13.96357950	     -4.17563519	     -7.49999987	    -19.70413580	      1.77697961	      1.74860920	      6.07950149	     -9.96573857	     -6.15532055	     17.84355112	     75.37161824	     12.14693546	    -10.78085890	     -4.85637916	     37.39664160	     73.66826586
     14.93333330	      2.90156934	      0.99358561	     -1.16928611	      0.56139167	      1.05601655	      0.84272772	     24.94705259	     -2.06231869	      0.14325656	     37.04390962	      0.64653819	      2.47506435	     -9.07100389	     -7.49999987	      0.40435393	      1.98744746	     -0.66158569	     15.83389500	      0.27635360	     14.28765603	     -3.95135761	     -7.49999987	    -20.39313004	      2.05212064	      1.84686226	      5.98062717	    -10.04418151	     -6.48730812	     18.04983703	     75.54726711	     12.66768910	    -10.68730894	     -6.18282007	     38.50392165	     73.79956041
     14.95000000	      3.10946700	      0.99327942	     -1.34451488	      0.55589094	      1.05603674	      0.84324195	     25.11711015	     -2.09950002	      0.03497534	     31.59634289	      0.55146021	      2.32481236	     -6.88956547	     -7.49999987	     -1.18930629	      2.03604941	     -0.59441228	     14.62370639	      0.25523183	     14.69573496	     -3.75893471	     -7.49999987	    -20.98325326	      2.17182502	      1.69278895	      5.82368088	    -10.09423550	     -6.81361592	     18.23458618	     75.63860354	     13.33707099	    -10.77743213	     -7.12588575	     39.56842268	     73.97170536
     14.96666670	      3.16337996	      1.15534742	     -1.42407376	      0.55380136	      1.05414756	      0.84437631	     25.40433709	     -2.40667879	     -0.21471890	     26.53901696	      0.46319323	      1.70222579	     -4.91045326	     -7.49999987	     -2.36799347	      2.25453920	     -0.39992671	     13.80758854	      0.24098788	     15.20611245	     -3.72318309	     -7.49999987	    -21.32719726	      2.15283034	      1.34943663	      5.72176806	     -9.98599873	     -7.36713827	     17.92710523	     75.90846397	     14.02637291	    -10.92171753	     -7.75854882	     40.77219805	     74.35572730
     14.98333330	      3.26328264	      1.39314798	     -1.51415503	      0.55501096	      1.05303351	      0.84558529	     25.55237875	     -2.83877701	     -0.60599760	     21.96127600	      0.38329657	      1.07605937	     -3.12825146	     -7.49999987	     -3.48830233	      2.57748982	     -0.24229494	     13.37534050	      0.23344373	     15.76041890	     -3.76229585	     -7.49999987	    -21.45573812	      2.09416345	      0.90219798	      5.51396568	     -9.90277449	     -8.05062238	     17.31649134	     76.35221354	     14.64298436	    -11.12521498	     -8.27029779	     41.57544986	     74.81182240
     15.00000000	      3.42946597	      1.59789316	     -1.89274086	      0.55604613	      1.05311051	      0.84644241	     25.63939904	     -3.09760535	     -0.80577302	     17.93096188	      0.31295432	      0.84080504	     -1.54634479	     -7.49999987	     -4.66353489	      2.89897810	     -0.53739880	     13.25803492	      0.23139636	     16.24455240	     -3.52938978	     -7.49999987	    -21.55946761	      2.08404830	      0.42561084	      5.39423213	     -9.82029553	     -8.48288704	     16.97301625	     76.32705817	     14.99905395	    -11.30259722	     -8.70313344	     42.30945609	     74.51988568
